<?xml version="1.0" encoding="utf-8"?>
<!-- Generator: Adobe Illustrator 25.2.0, SVG Export Plug-In . SVG Version: 6.00 Build 0)  -->
<svg version="1.1" id="Layer_1" xmlns="http://www.w3.org/2000/svg" xmlns:xlink="http://www.w3.org/1999/xlink" x="0px" y="0px"
	 viewBox="0 0 248 37.7" style="enable-background:new 0 0 248 37.7;" xml:space="preserve">
<style type="text/css">
	.st0{fill:#FFFFFF;}
	.st1{fill:#FEBA34;}
	.st2{enable-background:new    ;}
</style>
<g id="Group_37" transform="translate(-139 -31)">
	<g id="NAV_BAR" transform="translate(139 31)">
		<g id="Walmart_LOGO">
			<path id="Path_1" class="st0" d="M91.1,20c0-3.7-1.6-7-7-7c-2.1,0-4.3,0.5-6.1,1.5l0.9,3c1.4-0.8,2.9-1.2,4.5-1.3
				c2.7,0,3.2,1.5,3.2,2.5V19c-5.9,0-9.7,2-9.7,6.2c0,2.7,2.2,5,4.9,5c0.1,0,0.2,0,0.3,0c1.8,0.1,3.6-0.7,4.8-2.1h0.1
				c0,0,0.7,2.8,4.4,1.8c-0.2-1.3-0.3-2.6-0.3-4V20z M86.6,24c0,0.3,0,0.6-0.1,0.9c-0.4,1.3-1.6,2.1-3,2.1c-1.1,0.1-2.1-0.7-2.2-1.8
				c0-0.1,0-0.2,0-0.3c0-2.3,2.5-2.9,5.3-2.9"/>
			<path id="Path_2" class="st0" d="M0,8c0,0,3.9,15.9,4.5,18.5c0.7,3,2,4.1,5.8,3.4l2.4-9.9c0.6-2.4,1-4.2,1.4-6.7h0.1
				c0.3,2.2,0.7,4.5,1.2,6.7c0,0,1,4.5,1.5,6.8s1.9,3.8,5.6,3L28.3,8h-4.7l-2,9.5c-0.5,2.7-1,4.9-1.4,7.4h-0.1
				c-0.3-2.5-0.8-4.6-1.3-7.2L16.8,8H12l-2.2,9.4c-0.6,2.9-1.2,5.2-1.6,7.6H8.1c-0.4-2.3-0.9-5.2-1.4-7.9c0,0-1.3-6.7-1.8-9"/>
			<path id="Path_3" class="st0" d="M41.3,20c0-3.7-1.6-7-7-7c-2.1,0-4.3,0.5-6.1,1.5l0.9,3c1.4-0.8,2.9-1.2,4.5-1.3
				c2.7,0,3.2,1.5,3.2,2.5V19c-5.9,0-9.7,2-9.7,6.2c0,2.7,2.2,5,4.9,5c0.1,0,0.2,0,0.3,0c1.8,0.1,3.6-0.7,4.8-2.1h0.1
				c0,0,0.7,2.8,4.4,1.8c-0.2-1.3-0.3-2.6-0.3-4L41.3,20z M36.8,24c0,0.3,0,0.6-0.1,0.9c-0.4,1.3-1.7,2.1-3,2.1
				c-1.1,0.1-2.1-0.7-2.2-1.8c0-0.1,0-0.2,0-0.3c0-2.3,2.5-2.9,5.3-2.9"/>
			<path id="Path_4" class="st0" d="M43.7,8v21.8h4.4V8H43.7z"/>
			<path id="Path_5" class="st0" d="M104.7,8v16.1c0,2.2,0.4,3.8,1.3,4.7c1,0.9,2.3,1.4,3.6,1.4c1.1,0,2.2-0.2,3.2-0.5l-0.1-3.5
				c-0.6,0.1-1.1,0.2-1.7,0.2c-1.5,0-2-1-2-3v-6.2h3.9v-4.2h-3.9V8"/>
			<path id="Path_6" class="st0" d="M93.2,13.4v16.4h4.6v-8.4c0-0.4,0-0.8,0.1-1.2c0.3-1.8,1.9-3,3.6-2.9c0.4,0,0.9,0,1.3,0.1v-4.3
				c-2.4-0.5-4.8,1-5.5,3.4h-0.1v-3.1"/>
			<path id="Path_7" class="st0" d="M50.7,13.4v16.4h4.5v-9.6c0-0.5,0.1-0.9,0.2-1.3c0.4-1.2,1.5-2,2.7-2.1c1.8,0,2.7,1.5,2.7,3.7
				v9.4h4.5v-9.8c0-0.4,0.1-0.9,0.2-1.3c0.4-1.2,1.4-2,2.7-2c1.8,0,2.7,1.5,2.7,4.1v9h4.5v-9.7c0-5.1-2.6-7.1-5.5-7.1
				c-1.1,0-2.3,0.3-3.2,0.9c-0.8,0.5-1.5,1.2-2.1,2h-0.1c-0.7-1.8-2.6-3-4.5-2.9c-2-0.1-3.8,0.9-4.8,2.6H55v-2.2"/>
			<path id="Path_8" class="st1" d="M137,12.7c0.7,0.1,1.5-0.3,1.7-1l0.9-9.9c0-1-1.1-1.8-2.6-1.8s-2.6,0.8-2.6,1.8l0.9,9.9
				C135.6,12.3,136.3,12.8,137,12.7"/>
			<path id="Path_9" class="st1" d="M131.7,15.8c0.4-0.6,0.4-1.4-0.1-2l-8.1-5.7c-0.8-0.5-2.1,0.1-2.8,1.3c-0.7,1.2-0.6,2.6,0.3,3.1
				l9,4.2C130.6,16.8,131.4,16.4,131.7,15.8"/>
			<path id="Path_10" class="st1" d="M142.3,15.7c0.3,0.7,1,1.1,1.8,1l9-4.2c0.8-0.5,1-1.9,0.3-3.1c-0.7-1.2-2-1.8-2.8-1.3l-8.1,5.7
				C141.9,14.3,141.9,15.2,142.3,15.7"/>
			<path id="Path_11" class="st1" d="M137,25c0.7-0.1,1.5,0.3,1.7,1l0.9,9.9c0,1-1.1,1.8-2.6,1.8s-2.6-0.8-2.6-1.8l0.9-9.9
				C135.6,25.3,136.3,24.9,137,25"/>
			<path id="Path_12" class="st1" d="M142.3,21.9c0.5-0.8,1.2-1.2,1.8-1l9,4.2c0.8,0.5,1,1.9,0.3,3.1c-0.7,1.2-2,1.8-2.8,1.3
				l-8.1-5.7C141.9,23.3,141.9,22.5,142.3,21.9"/>
			<path id="Path_13" class="st1" d="M131.7,21.9c0.4,0.6,0.4,1.4-0.1,2l-8.1,5.7c-0.8,0.5-2.1-0.1-2.8-1.3s-0.6-2.6,0.3-3.1l9-4.2
				C130.6,20.8,131.4,21.2,131.7,21.9"/>
			<path id="Path_14" class="st0" d="M155.7,28.7h0.1c0.2,0,0.2,0,0.2,0.2c0,0.1,0,0.2,0.1,0.3h0.3c0-0.1-0.1-0.2-0.1-0.3
				c0-0.1-0.1-0.2-0.2-0.3v0c0.1,0,0.2-0.1,0.2-0.3c0-0.1,0-0.2-0.1-0.2c-0.1-0.1-0.3-0.1-0.4-0.1c-0.1,0-0.3,0-0.4,0v1.1h0.3
				L155.7,28.7z M155.8,28.2l0.1,0c0.2,0,0.2,0.1,0.2,0.2s-0.1,0.2-0.3,0.2h-0.1V28.2z M155.9,27.5c-0.6,0-1.1,0.5-1.1,1.1
				s0.5,1.1,1.1,1.1c0.6,0,1.1-0.5,1.1-1.1C157,28,156.5,27.5,155.9,27.5C155.9,27.5,155.9,27.5,155.9,27.5 M155.9,27.7
				c0.5,0,0.9,0.4,0.8,0.9c0,0.5-0.4,0.8-0.8,0.8c-0.5,0-0.9-0.4-0.9-0.9C155.1,28.1,155.4,27.7,155.9,27.7"/>
		</g>
	</g>
	<g class="st2">
		<path class="st0" d="M306.4,45.1c0-0.2,0.1-0.3,0.3-0.3h3.8c2,0,3.6,1.6,3.6,3.5c0,2-1.6,3.6-3.6,3.6h-2v3.8
			c0,0.2-0.1,0.3-0.3,0.3h-1.5c-0.2,0-0.3-0.1-0.3-0.3V45.1z M310.4,50c0.9,0,1.6-0.7,1.6-1.7c0-0.9-0.7-1.6-1.6-1.6h-1.9V50H310.4z
			"/>
		<path class="st0" d="M315.2,49c0-0.2,0.2-0.4,0.4-0.4h1.3c0.2,0,0.4,0.1,0.4,0.4v3.9c0,1,0.3,1.5,1.2,1.5c0.8,0,1.2-0.7,1.3-1.4
			v-4c0-0.3,0.1-0.4,0.4-0.4h1.2c0.2,0,0.4,0.1,0.4,0.4v6.8c0,0.2-0.1,0.3-0.4,0.3c-0.7,0-1-0.4-1.2-0.9c-0.4,0.4-1.2,1-2.2,1
			c-2.3,0-2.8-1.4-2.8-3.3V49z"/>
		<path class="st0" d="M327.1,48.4c1.9,0,3.4,1.4,3.4,3.4c0,0.1,0,0.4,0,0.5c0,0.2-0.2,0.3-0.4,0.3h-4.7c0,0.9,0.8,1.7,1.8,1.7
			c0.7,0,1.2-0.3,1.6-0.5c0.2-0.1,0.4-0.2,0.5,0l0.6,0.8c0.1,0.1,0.1,0.3,0,0.5c-0.6,0.5-1.6,1-2.8,1c-2.2,0-3.7-1.8-3.7-3.9
			C323.4,50.2,324.9,48.4,327.1,48.4z M328.5,51.4c0-0.7-0.6-1.3-1.4-1.3c-0.9,0-1.5,0.5-1.6,1.3H328.5z"/>
		<path class="st0" d="M332,48.9c0-0.2,0.1-0.3,0.4-0.3c0.7,0,1.1,0.4,1.2,1c0.3-0.4,0.9-1.1,2.1-1.1c0.9,0,1.6,0.2,1.4,0.7
			l-0.5,1.1c-0.1,0.2-0.3,0.2-0.4,0.2c-0.2-0.1-0.4-0.1-0.7-0.1c-0.8,0-1.3,0.5-1.4,0.8v4.6c0,0.3-0.2,0.4-0.4,0.4h-1.2
			c-0.2,0-0.4-0.2-0.4-0.4V48.9z"/>
		<path class="st0" d="M338,50.4c-0.2,0-0.3-0.2-0.3-0.4V49c0-0.2,0.1-0.4,0.3-0.4h0.7v-2c0-0.2,0.2-0.4,0.4-0.4h1.3
			c0.2,0,0.3,0.2,0.3,0.4v2h1.7c0.2,0,0.4,0.1,0.4,0.4V50c0,0.2-0.2,0.4-0.4,0.4h-1.7v3c0,0.7,0.3,1,0.8,1c0.3,0,0.8-0.1,0.9-0.2
			c0.2-0.1,0.4,0,0.4,0.2l0.2,1c0,0.2,0,0.3-0.2,0.4c-0.3,0.1-0.9,0.4-1.7,0.4c-1.5,0-2.4-1-2.4-2.7v-3.1H338z"/>
		<path class="st0" d="M347.8,48.4c2.1,0,3.8,1.8,3.8,3.8c0,2.1-1.7,3.9-3.8,3.9c-2.1,0-3.8-1.8-3.8-3.9
			C344,50.2,345.7,48.4,347.8,48.4z M347.8,54.4c1.1,0,1.9-0.9,1.9-2.1c0-1.1-0.9-2-1.9-2s-1.9,0.9-1.9,2
			C345.9,53.4,346.7,54.4,347.8,54.4z"/>
		<path class="st0" d="M357.3,45.1c0-0.2,0.1-0.3,0.3-0.3h4.6c1.9,0,3.5,1.5,3.5,3.4c0,1.5-1,2.7-2.4,3.2l2.2,4.1
			c0.1,0.2,0,0.5-0.3,0.5h-1.7c-0.1,0-0.2-0.1-0.3-0.1l-2.1-4.2h-1.8v4.1c0,0.2-0.1,0.3-0.3,0.3h-1.5c-0.2,0-0.3-0.1-0.3-0.3V45.1z
			 M362,49.9c0.8,0,1.6-0.7,1.6-1.6c0-0.8-0.7-1.6-1.6-1.6h-2.6v3.2H362z"/>
		<path class="st0" d="M367.1,46.1c0-0.7,0.5-1.3,1.3-1.3s1.3,0.6,1.3,1.3c0,0.7-0.6,1.3-1.3,1.3S367.1,46.8,367.1,46.1z M367.4,49
			c0-0.2,0.2-0.4,0.4-0.4h1.3c0.2,0,0.4,0.1,0.4,0.4v6.7c0,0.2-0.2,0.4-0.4,0.4h-1.3c-0.2,0-0.4-0.2-0.4-0.4V49z"/>
		<path class="st0" d="M374.9,48.4c1.2,0,2,0.5,2.8,1.2c0.2,0.2,0.1,0.4-0.1,0.5l-0.7,0.7c-0.2,0.2-0.3,0.1-0.5,0
			c-0.4-0.3-0.8-0.6-1.5-0.6c-1.2,0-2,0.9-2,2c0,1.2,0.8,2,1.9,2c0.8,0,1.2-0.4,1.6-0.8c0.1-0.1,0.3-0.2,0.5,0l0.7,0.6
			c0.2,0.2,0.3,0.3,0.1,0.5c-0.6,1-1.6,1.6-2.9,1.6c-2.2,0-3.9-1.6-3.9-3.9C371,50.1,372.7,48.4,374.9,48.4z"/>
		<path class="st0" d="M382.5,48.4c2.1,0,3.8,1.8,3.8,3.8c0,2.1-1.7,3.9-3.8,3.9c-2.1,0-3.8-1.8-3.8-3.9
			C378.7,50.2,380.4,48.4,382.5,48.4z M382.5,54.4c1.1,0,1.9-0.9,1.9-2.1c0-1.1-0.9-2-1.9-2s-1.9,0.9-1.9,2
			C380.6,53.4,381.4,54.4,382.5,54.4z"/>
	</g>
</g>
</svg>
