<svg xmlns="http://www.w3.org/2000/svg" width="248" height="37.654" viewBox="0 0 248 37.654">
  <g id="Group_37" data-name="Group 37" transform="translate(-139 -31)">
    <g id="NAV_BAR" transform="translate(139 31)">
      <g id="Walmart_LOGO">
        <path id="Path_1" data-name="Path 1" d="M128.507,26.39c0-3.719-1.592-7-6.975-7a12.7,12.7,0,0,0-6.146,1.476l.872,2.983a9.067,9.067,0,0,1,4.492-1.253c2.725,0,3.172,1.538,3.172,2.529v.239c-5.949-.01-9.71,2.046-9.71,6.232a4.947,4.947,0,0,0,5.247,4.956,6.007,6.007,0,0,0,4.785-2.119h.1s.678,2.835,4.425,1.751a24.693,24.693,0,0,1-.262-3.959Zm-4.438,3.926a2.865,2.865,0,0,1-.114.88,3.107,3.107,0,0,1-2.995,2.1,2.032,2.032,0,0,1-2.215-2.175c0-2.252,2.487-2.872,5.324-2.856" transform="translate(-37.424 -6.352)" fill="#fff"/>
        <path id="Path_2" data-name="Path 2" d="M0,11.861s3.886,15.9,4.5,18.473c.728,3.01,2.031,4.123,5.791,3.382l2.429-9.858c.614-2.442,1.032-4.194,1.428-6.683h.067a65.589,65.589,0,0,0,1.174,6.69s.991,4.479,1.505,6.825,1.909,3.826,5.6,3.026L28.28,11.861H23.612l-1.984,9.454c-.525,2.739-1,4.9-1.374,7.406h-.067c-.335-2.483-.76-4.552-1.307-7.235l-2.056-9.625h-4.87L9.76,21.24C9.135,24.1,8.55,26.4,8.182,28.831H8.118c-.379-2.281-.893-5.185-1.438-7.941,0,0-1.3-6.715-1.763-9.029" transform="translate(0 -3.886)" fill="#fff"/>
        <path id="Path_3" data-name="Path 3" d="M54.441,26.39c0-3.719-1.6-7-6.979-7a12.711,12.711,0,0,0-6.142,1.476l.872,2.983a9.038,9.038,0,0,1,4.492-1.253c2.725,0,3.172,1.538,3.172,2.529v.239c-5.949-.01-9.714,2.046-9.714,6.232a4.95,4.95,0,0,0,5.239,4.956A5.987,5.987,0,0,0,50.17,34.43h.1s.681,2.835,4.425,1.751a24.509,24.509,0,0,1-.258-3.959ZM50,30.317a2.988,2.988,0,0,1-.11.88,3.117,3.117,0,0,1-3,2.1,2.032,2.032,0,0,1-2.212-2.175c0-2.252,2.487-2.872,5.324-2.856" transform="translate(-13.153 -6.352)" fill="#fff"/>
        <path id="Path_4" data-name="Path 4" d="M65.012,11.861V33.708h4.442V11.861Z" transform="translate(-21.303 -3.886)" fill="#fff"/>
        <path id="Path_5" data-name="Path 5" d="M155.753,11.861V27.98c0,2.225.418,3.776,1.316,4.727a4.949,4.949,0,0,0,3.618,1.376,10.761,10.761,0,0,0,3.222-.475l-.054-3.47a7.117,7.117,0,0,1-1.694.2c-1.517,0-2.017-.96-2.017-2.958V21.205h3.869V17.03h-3.869v-5.17" transform="translate(-51.036 -3.886)" fill="#fff"/>
        <path id="Path_6" data-name="Path 6" d="M138.675,19.772V36.188h4.592V27.781a6.2,6.2,0,0,1,.1-1.2,3.459,3.459,0,0,1,3.626-2.895,7.683,7.683,0,0,1,1.317.123V19.5a4.713,4.713,0,0,0-5.486,3.374h-.113v-3.1" transform="translate(-45.44 -6.359)" fill="#fff"/>
        <path id="Path_7" data-name="Path 7" d="M75.456,19.772V36.188h4.475V26.553a3.743,3.743,0,0,1,.21-1.332,3,3,0,0,1,2.716-2.106c1.8,0,2.652,1.521,2.652,3.715v9.358h4.463V26.437a4.592,4.592,0,0,1,.185-1.324,2.8,2.8,0,0,1,2.687-2c1.821,0,2.7,1.488,2.7,4.075v9h4.459V26.508c0-5.085-2.587-7.1-5.524-7.1a5.939,5.939,0,0,0-3.243.887,7.031,7.031,0,0,0-2.081,2.038H89.09a4.683,4.683,0,0,0-4.533-2.926,5.161,5.161,0,0,0-4.785,2.589h-.067V19.772" transform="translate(-24.725 -6.359)" fill="#fff"/>
        <path id="Path_8" data-name="Path 8" d="M202.528,12.676a1.626,1.626,0,0,0,1.713-1.047l.87-9.855C205.111.8,203.962,0,202.528,0s-2.583.8-2.583,1.775l.878,9.855a1.612,1.612,0,0,0,1.705,1.047" transform="translate(-65.517)" fill="#feba34"/>
        <path id="Path_9" data-name="Path 9" d="M190.252,19.61a1.616,1.616,0,0,0-.06-2.006l-8.122-5.68c-.845-.493-2.109.094-2.833,1.338s-.576,2.635.252,3.118l8.992,4.169a1.608,1.608,0,0,0,1.771-.947" transform="translate(-58.579 -3.85)" fill="#feba34"/>
        <path id="Path_10" data-name="Path 10" d="M211.579,19.6a1.653,1.653,0,0,0,1.773.959l8.992-4.18c.835-.493.96-1.873.254-3.114-.722-1.243-1.994-1.827-2.837-1.343L211.636,17.6a1.658,1.658,0,0,0-.048,2.013" transform="translate(-69.231 -3.852)" fill="#feba34"/>
        <path id="Path_11" data-name="Path 11" d="M202.528,37.163a1.626,1.626,0,0,1,1.713,1.047l.87,9.855c0,.976-1.149,1.767-2.583,1.767s-2.583-.791-2.583-1.767l.878-9.855a1.612,1.612,0,0,1,1.705-1.047" transform="translate(-65.517 -12.177)" fill="#feba34"/>
        <path id="Path_12" data-name="Path 12" d="M211.579,32.1c.46-.764,1.212-1.172,1.773-.951l8.992,4.173c.835.483.96,1.875.254,3.118-.722,1.234-1.994,1.821-2.837,1.338l-8.124-5.682a1.633,1.633,0,0,1-.048-2" transform="translate(-69.231 -10.186)" fill="#feba34"/>
        <path id="Path_13" data-name="Path 13" d="M190.252,32.088a1.617,1.617,0,0,1-.06,2.006l-8.122,5.672c-.845.493-2.109-.1-2.833-1.33s-.576-2.635.252-3.118l8.992-4.173a1.6,1.6,0,0,1,1.771.943" transform="translate(-58.579 -10.186)" fill="#feba34"/>
        <path id="Path_14" data-name="Path 14" d="M231.181,42.121h.112c.152,0,.214.048.231.169a.835.835,0,0,0,.083.264h.289a.525.525,0,0,1-.075-.271.307.307,0,0,0-.214-.258V42a.263.263,0,0,0,.231-.252.332.332,0,0,0-.1-.239.784.784,0,0,0-.393-.083,1.821,1.821,0,0,0-.42.04v1.089h.256Zm.008-.5.131-.017c.154,0,.237.071.237.171s-.112.164-.254.164h-.114Zm.164-.739a1.1,1.1,0,1,0,1.124,1.1,1.1,1.1,0,0,0-1.124-1.1m0,.221a.88.88,0,0,1,0,1.759.88.88,0,0,1-.008-1.759" transform="translate(-75.437 -13.397)" fill="#fff"/>
      </g>
    </g>
    <text id="Puerto_Rico" data-name="Puerto Rico" transform="translate(305 56)" fill="#fff" font-size="16" font-family="Bogle-Bold, Bogle" font-weight="700"><tspan x="0" y="0">Puerto Rico</tspan></text>
  </g>
</svg>
